<?xml version="1.0" encoding="UTF-8" standalone="no"?>
<!-- Created with Inkscape (http://www.inkscape.org/) -->

<svg
   version="1.1"
   id="svg1"
   width="706.33936"
   height="830.5"
   viewBox="0 0 706.33936 830.5"
   sodipodi:docname="black-favicon.svg"
   inkscape:version="1.4.2 (f4327f4, 2025-05-13)"
   xmlns:inkscape="http://www.inkscape.org/namespaces/inkscape"
   xmlns:sodipodi="http://sodipodi.sourceforge.net/DTD/sodipodi-0.dtd"
   xmlns="http://www.w3.org/2000/svg"
   xmlns:svg="http://www.w3.org/2000/svg">
  <defs
     id="defs1" />
  <sodipodi:namedview
     id="namedview1"
     pagecolor="#ffffff"
     bordercolor="#000000"
     borderopacity="0.25"
     inkscape:showpageshadow="2"
     inkscape:pageopacity="0.0"
     inkscape:pagecheckerboard="0"
     inkscape:deskcolor="#d1d1d1"
     inkscape:zoom="0.37744141"
     inkscape:cx="-194.73221"
     inkscape:cy="324.55369"
     inkscape:window-width="1920"
     inkscape:window-height="991"
     inkscape:window-x="-9"
     inkscape:window-y="-9"
     inkscape:window-maximized="1"
     inkscape:current-layer="g1" />
  <g
     inkscape:groupmode="layer"
     inkscape:label="Image"
     id="g1"
     transform="translate(-148.24978,-106.99418)">
    <path
       style="fill:#000000"
       d="m 209.75291,881.99417 v -55.5 h 15 15 v 7.23812 7.23812 l 2.65741,-3.73488 c 9.43804,-13.2648 33.9428,-16.79692 51.67642,-7.44865 5.4797,2.88862 10.85872,8.23595 13.60566,13.52548 1.18242,2.27689 1.26947,2.22429 4.88559,-2.95171 9.46523,-13.54827 25.77715,-18.71022 45.17965,-14.29721 12.69343,2.88706 21.24151,10.21933 26.29288,22.55318 2.12983,5.20037 2.2123,6.75311 2.50313,47.12755 l 0.30073,41.75 h -14.48292 -14.48292 l -0.31781,-35.75 -0.31782,-35.75 -2.5,-4.4613 c -4.54145,-8.1043 -12.13458,-11.19055 -22.32657,-9.0747 -6.94591,1.44196 -12.58917,6.17729 -15.78157,13.2425 -2.34466,5.18903 -2.398,5.94971 -2.70306,38.5435 l -0.31119,33.25 h -14.93881 -14.9388 v -34.13398 c 0,-37.83384 -0.27771,-39.97364 -5.96265,-45.94355 -4.27985,-4.49439 -10.36612,-6.40183 -17.43496,-5.46411 -6.08533,0.80724 -8.06802,1.78929 -12.85882,6.3691 -7.26258,6.94273 -7.74357,9.8441 -7.74357,46.71005 v 32.46249 h -15 -15 z m 203,-23 v -78.5 h 14.99001 14.99002 l 0.25998,46.05396 0.25999,46.05396 19.97525,-23.05396 19.97526,-23.05396 h 18.38618 18.38618 l -9.93532,10.75 c -15.7277,17.01735 -36.28755,40.31776 -36.28755,41.12456 0,0.40531 10.575,13.65583 23.5,29.44559 12.925,15.78976 23.5,28.92718 23.5,29.19425 0,0.26708 -8.05176,0.4856 -17.89281,0.4856 h -17.89281 l -9.8272,-12.25 c -5.40495,-6.7375 -14.90319,-18.46203 -21.10719,-26.05451 l -11.27999,-13.8045 v 26.0545 26.05451 h -15 -15 z m 132,35.5 v -43 h -9 -9 v -12 -12 h 8.87675 8.87674 l 0.44033,-11.75 c 0.47104,-12.56958 2.07495,-17.9804 7.39902,-24.9606 5.86837,-7.69384 19.72996,-12.15267 33.80259,-10.87324 15.8424,1.44034 15.61388,1.36019 15.52945,5.44738 -0.0413,2.00005 -0.60412,7.21118 -1.25068,11.58028 l -1.17557,7.94382 -5.64172,-0.26134 c -7.15118,-0.33125 -13.41529,1.34117 -16.47186,4.39774 -2.1231,2.1231 -2.38505,3.27992 -2.38505,10.53282 v 8.14777 l 13.25,-0.35231 13.25,-0.35232 0.28078,12.25 0.28078,12.25 h -13.53078 -13.53078 v 43 43 h -15 -15 z m 77,-12.5 v -55.5 h 15 15 v 55.5 55.5 h -15 -15 z m 48,54.87699 c 0,-0.83801 6.42826,-9.84537 24.68974,-34.5956 l 15.28683,-20.71862 -15.81017,-21.83298 c -8.69559,-12.00814 -17.70452,-24.39726 -20.01983,-27.53138 l -4.20966,-5.69841 17.28155,0.0444 17.28154,0.0444 10.95189,16.02138 c 6.02353,8.81176 11.27548,16.22138 11.671,16.46582 0.39551,0.24444 6.06349,-6.87265 12.59551,-15.81576 l 11.87641,-16.26024 16.76616,-0.27447 16.76616,-0.27446 -5.89276,7.77446 c -12.81831,16.91152 -33.23437,45.25527 -33.23437,46.13949 0,0.51469 8.35867,12.77312 18.57482,27.24093 10.21615,14.46782 19.00698,27.11264 19.53518,28.09959 0.90509,1.69117 0.04,1.79446 -15.02988,1.79446 h -15.99024 l -5.84699,-7.75 c -3.21584,-4.2625 -8.65679,-11.67375 -12.09101,-16.46946 -3.43421,-4.7957 -6.60965,-8.94542 -7.05652,-9.22161 -0.44688,-0.27618 -6.56126,7.13507 -13.58752,16.46946 l -12.77501,16.97161 h -15.86641 c -8.72653,0 -15.86642,-0.28035 -15.86642,-0.62301 z M 628.71892,809.24417 c -6.37749,-3.21895 -9.14693,-8.392 -8.72236,-16.29254 0.39617,-7.37214 3.21656,-11.85401 9.15742,-14.55203 12.36613,-5.61602 25.56603,2.43555 25.56603,15.59457 0,13.62284 -13.51739,21.55098 -26.00109,15.25 z M 248.34999,753.88754 c -43.49574,-7.85472 -80.10992,-41.3803 -94.43548,-86.46934 -5.98718,-18.84438 -5.6616,-5.33475 -5.6616,-234.92403 0,-199.11112 0.10462,-212.0137 1.78597,-220.26989 5.80354,-28.4979 18.85804,-52.22028 39.59837,-71.9574 16.36938,-15.57759 33.53034,-25.11697 55.00361,-30.57524 l 10.61205,-2.69746 h 243.5 c 231.5823,0 243.89155,0.0888 251.5,1.81423 31.65279,7.17816 54.47638,20.51334 72.53115,42.37789 17.61306,21.32964 28.39521,47.2705 31.01307,74.61463 0.73703,7.69853 0.94934,74.41722 0.67998,213.69324 -0.41996,217.14607 -0.19025,207.26416 -5.22267,224.67673 -11.56683,40.02213 -42.95835,73.21744 -81.00153,85.65597 -18.31042,5.98674 -3.31068,5.67559 -268.88099,5.57756 -205.94876,-0.076 -244.32728,-0.30793 -251.02193,-1.51689 z m 245.36463,-95.08976 c -1.78501,-2.03302 -4.41153,-6.19552 -5.8367,-9.25 -2.29077,-4.90966 -2.59318,-6.83151 -2.60812,-16.57464 -0.0162,-10.54578 0.13102,-11.32197 3.41317,-18 3.11512,-6.33817 7.39646,-10.97309 46.62814,-50.47897 l 43.19807,-43.5 -1.86133,-9 c -5.79327,-28.01186 1.95789,-54.67805 21.50983,-74 9.86626,-9.75019 20.94333,-16.26366 35.34502,-20.78332 l 10.24979,-3.21668 2.1e-4,-9.62427 c 3.2e-4,-14.74487 -3.50447,-21.80996 -13.49979,-27.21336 l -4,-2.16237 h -125 -125 l -4.14255,2.21551 c -6.07033,3.24651 -11.06178,9.56583 -12.37316,15.66476 -0.77721,3.61464 -1.01021,41.42601 -0.79256,128.61973 l 0.30827,123.5 2.22098,4.15327 c 1.22154,2.2843 3.92154,5.56169 6,7.28307 7.13904,5.91258 7.19976,5.9177 71.13261,5.99401 l 58.35359,0.0697 z m -81.10818,-21.85033 c -5.4633,-1.70893 -10.26273,-6.66404 -11.7934,-12.17595 -0.57694,-2.07753 -1.05149,-8.41941 -1.05455,-14.09307 -0.003,-5.67366 -0.4918,-11.22426 -1.08607,-12.33466 -0.59427,-1.1104 -2.61927,-2.66186 -4.5,-3.44768 -3.39439,-1.41827 -3.41951,-1.47641 -3.41951,-7.91534 0,-4.98787 0.33369,-6.48658 1.44424,-6.48658 0.79433,0 2.70683,-1.08513 4.25,-2.41139 2.76374,-2.37528 2.81414,-2.61975 3.36551,-16.32413 0.48998,-12.17884 0.84527,-14.37473 2.85077,-17.6197 2.91611,-4.71836 9.01521,-7.86498 15.55093,-8.02298 l 5.03855,-0.1218 0.29839,5.6993 c 0.28153,5.37719 0.13824,5.78211 -2.53536,7.16468 -4.17245,2.15766 -5.07366,4.94188 -5.5624,17.18472 -0.47934,12.00718 -1.70517,15.73651 -6.38174,19.4151 l -2.72106,2.14039 2.60073,2.1979 c 5.08788,4.29983 6.03282,7.03143 6.68697,19.33045 l 0.61545,11.5714 3.80872,3.19761 c 3.66002,3.07277 3.79665,3.41041 3.49951,8.64803 -0.29885,5.26776 -0.40975,5.45723 -3.30921,5.65377 -1.65,0.11185 -5.09091,-0.45068 -7.64647,-1.25007 z m 35.14647,-105.15951 c -0.825,-0.30158 -2.5125,-1.4695 -3.75,-2.59536 -3.30269,-3.00477 -3.19004,-10.84928 0.20455,-14.24386 5.54255,-5.54255 15.54545,-1.01627 15.54545,7.03427 0,4.92822 -1.51396,7.41015 -5.54837,9.09584 -3.61161,1.50902 -4.11275,1.5641 -6.45163,0.70911 z m 32,-8.79377 v -7.5 h 18 18 v 7.5 7.5 h -18 -18 z m -65.33253,-8.93332 c -5.88472,-1.58233 -9.52466,-4.17861 -12.15689,-8.67121 -1.70792,-2.91502 -2.06167,-5.81518 -2.5,-20.49612 -0.54752,-18.33803 -0.80272,-19.24218 -6.04374,-21.41308 -2.81044,-1.16413 -2.96684,-1.53695 -2.96684,-7.07241 0,-5.0495 0.30572,-6.00113 2.25,-7.00364 1.2375,-0.63808 3.2625,-2.08235 4.5,-3.2095 2.13613,-1.94563 2.25028,-2.78699 2.25558,-16.62503 0.003,-8.01663 0.50248,-16.36554 1.1098,-18.55314 1.67943,-6.04932 7.24302,-11.01174 14.05484,-12.53616 7.9691,-1.78341 8.62875,-1.33246 8.1235,5.55344 -0.36302,4.9476 -0.87956,6.14699 -3.85644,8.95455 l -3.43728,3.24177 v 11.58271 c 0,15.25028 -1.1694,20.48376 -5.51905,24.6996 l -3.41605,3.31097 3.41374,3.77861 c 4.57395,5.06281 5.61116,9.60652 5.45419,23.89312 -0.14136,12.86599 0.80381,16.1457 5.04053,17.49038 1.11465,0.35378 2.06639,1.40041 2.11498,2.32585 0.0486,0.92543 0.2524,3.82011 0.45294,6.43261 0.20053,2.6125 -0.0274,4.75 -0.50655,4.75 -0.47914,0 -1.47046,0.19487 -2.20294,0.43304 -0.73249,0.23818 -3.50643,-0.15169 -6.16432,-0.86636 z m 33.35309,-21.68272 c -4.7801,-1.9072 -6.02056,-3.85762 -6.02056,-9.46637 0,-4.50482 0.38361,-5.57418 2.63486,-7.34501 6.35105,-4.99574 15.36514,-0.81314 15.36514,7.12953 0,5.21291 -1.45409,7.67185 -5.54837,9.38255 -1.86307,0.77844 -3.51435,1.38682 -3.66951,1.35195 -0.15517,-0.0349 -1.39787,-0.50855 -2.76156,-1.05265 z m 32.18563,-8.13396 0.29381,-7.25 16.96328,-0.27515 c 9.3298,-0.15133 17.4298,-0.0972 18,0.12033 0.62619,0.23886 0.90523,3.21873 0.70466,7.52514 l -0.33206,7.12968 h -17.96175 -17.96175 z m 64.79381,174.1935 c 3.15142,-1.40944 9.29496,-6.8737 20.5,-18.23334 8.8,-8.92141 29.32713,-29.39796 45.61584,-45.50343 l 29.61583,-29.28267 7.88417,2.73988 c 6.89849,2.39734 9.38439,2.7395 19.88416,2.7369 13.61836,-0.003 17.49711,-0.87251 29.5,-6.61025 6.95547,-3.32493 10.05351,-5.62844 17.04944,-12.67693 12.57358,-12.66803 18.95893,-26.32151 20.4835,-43.79886 0.77319,-8.8637 -0.85682,-21.50878 -3.0021,-23.2892 -1.51807,-1.25989 -0.13033,-2.33487 -27.3076,21.15321 -12.28905,10.62087 -20.40796,16.92249 -22.3531,17.34971 -1.68003,0.369 -5.09464,0.36498 -7.58801,-0.009 -4.02876,-0.60415 -5.78785,-1.86756 -15.80266,-11.34971 -7.83058,-7.4141 -11.60477,-11.73787 -12.36879,-14.16989 -1.72235,-5.48256 -1.38269,-15.06516 0.64458,-18.18526 0.95961,-1.4769 10.85724,-10.62654 21.99474,-20.33255 11.1375,-9.70601 20.25,-18.04757 20.25,-18.5368 0,-1.41323 -9.73987,-3.8574 -19,-4.76796 -22.07523,-2.17069 -39.63155,3.18041 -53.96123,16.44716 -11.02065,10.20318 -16.93594,21.38156 -19.72294,37.27132 -1.70186,9.70291 -0.75369,20.22857 2.78181,30.8809 l 2.08327,6.27681 -42.45972,42.72319 c -48.32594,48.6258 -51.21948,51.75474 -52.66078,56.94483 -3.92732,14.14222 3.45121,27.76242 17.82187,32.89778 5.53739,1.97879 14.88411,1.66476 20.11772,-0.67592 z m -16.81018,-16.91059 c -8.98964,-5.63983 -7.20359,-19.33648 2.87539,-22.05047 8.50933,-2.29132 17.05193,5.24917 15.47423,13.659 -1.60097,8.5339 -11.15693,12.90394 -18.34962,8.39147 z M 587.9531,342.15386 c 2.0351,-1.01216 4.94956,-3.47831 6.47658,-5.48033 2.34191,-3.0704 2.85829,-4.89503 3.29981,-11.6597 l 0.52342,-8.01966 4.68823,-0.53911 c 5.2731,-0.60637 8.44192,-2.9349 10.44979,-7.67877 1.87362,-4.42671 1.86704,-27.16103 -0.009,-31.56424 -2.2951,-5.38635 -5.95271,-7.99726 -11.89349,-8.48992 l -5.28,-0.43786 -3.92816,-8.14505 c -5.42001,-11.23812 -16.87371,-22.81254 -27.75277,-28.04516 -10.80776,-5.19832 -18.47842,-6.56207 -37.0246,-6.58252 l -15.75,-0.0174 v -18.3119 -18.31194 l 2.88364,-2.13197 c 7.68793,-5.68393 9.48736,-19.99606 3.57028,-28.3968 -4.45236,-6.3212 -10.38363,-9.08466 -18.56444,-8.64943 -8.66042,0.46075 -13.61057,3.59464 -17.26657,10.93128 -4.57985,9.19055 -3.24862,16.98206 4.30083,25.17224 l 4.07626,4.42222 v 17.63817 17.63817 l -15.75,0.0174 c -18.55246,0.0205 -26.44107,1.42138 -36.78555,6.53269 -12.40173,6.12781 -24.10456,18.7176 -29.93142,32.19994 -1.80618,4.17921 -1.91913,4.25 -6.78061,4.25 -5.67333,0 -9.7492,2.03168 -12.11688,6.03983 -1.31762,2.23053 -1.63554,5.67427 -1.63554,17.71654 0,13.90382 0.15924,15.18413 2.28002,18.33114 2.70294,4.01089 6.01667,5.87751 10.46998,5.89771 l 3.25,0.0147 v 6.03212 c 0,9.90513 3.77897,16.50583 11.5,20.08699 3.80757,1.76603 7.9689,1.84387 86.5,1.61808 77.83469,-0.22378 82.70924,-0.34126 86.20019,-2.0775 z M 451.21154,308.61451 c -7.82776,-3.55566 -12.16741,-11.48797 -11.12057,-20.32695 0.76768,-6.48184 3.8145,-11.21245 9.2872,-14.41966 9.03185,-5.29302 21.76299,-1.40032 26.33957,8.05362 3.95481,8.16954 2.09508,17.58947 -4.64366,23.52114 -6.15465,5.41755 -12.63902,6.45303 -19.86254,3.17185 z m 85.03279,0.0147 c -11.1463,-5.06366 -14.96438,-18.77753 -8.11108,-29.13357 6.13062,-9.26398 19.82145,-10.82294 27.99576,-3.18783 10.65301,9.9503 7.71104,27.07376 -5.60763,32.63865 -4.84868,2.02591 -9.33883,1.92613 -14.27705,-0.31725 z"
       id="path1" />
  </g>
</svg>
